<?xml version="1.0" encoding="UTF-8"?>
<svg id="Layer_2" data-name="Layer 2" xmlns="http://www.w3.org/2000/svg" xmlns:xlink="http://www.w3.org/1999/xlink" viewBox="0 0 231.8 200.51">
  <defs>
    <style>
      .cls-1 {
        fill: url(#linear-gradient-2);
      }

      .cls-2 {
        fill: url(#linear-gradient-4);
      }

      .cls-3 {
        fill: url(#linear-gradient-3);
      }

      .cls-4 {
        filter: url(#drop-shadow-1);
      }

      .cls-5 {
        fill: url(#linear-gradient-5);
      }

      .cls-6 {
        fill: url(#linear-gradient);
      }
    </style>
    <filter id="drop-shadow-1" x="-4.1" y="-3.94" width="244" height="214" filterUnits="userSpaceOnUse">
      <feOffset dx="2" dy="3"/>
      <feGaussianBlur result="blur" stdDeviation="2"/>
      <feFlood flood-color="#282828" flood-opacity=".5"/>
      <feComposite in2="blur" operator="in"/>
      <feComposite in="SourceGraphic"/>
    </filter>
    <linearGradient id="linear-gradient" x1="3.62" y1="61.62" x2="139.31" y2="61.62" gradientUnits="userSpaceOnUse">
      <stop offset="0" stop-color="#dbdbdb"/>
      <stop offset=".27" stop-color="#929292"/>
      <stop offset=".5" stop-color="#c8c8c8"/>
      <stop offset=".73" stop-color="#e5e5e5"/>
      <stop offset="1" stop-color="#6d6d6d"/>
    </linearGradient>
    <linearGradient id="linear-gradient-2" x1="119.12" y1="5.11" x2="10.81" y2="172.21" gradientUnits="userSpaceOnUse">
      <stop offset="0" stop-color="#0064d5"/>
      <stop offset=".23" stop-color="#008eff"/>
      <stop offset=".41" stop-color="#009fff"/>
      <stop offset=".59" stop-color="#005ded"/>
      <stop offset=".77" stop-color="#0074f4"/>
      <stop offset="1" stop-color="#00004e"/>
      <stop offset="1" stop-color="#0069e0"/>
    </linearGradient>
    <linearGradient id="linear-gradient-3" x1="117.62" y1="192.77" x2="248.68" y2="94.19" gradientUnits="userSpaceOnUse">
      <stop offset="0" stop-color="#d6d6d6"/>
      <stop offset=".24" stop-color="#929292"/>
      <stop offset=".5" stop-color="#c8c8c8"/>
      <stop offset=".73" stop-color="#e5e5e5"/>
      <stop offset="1" stop-color="#6d6d6d"/>
    </linearGradient>
    <linearGradient id="linear-gradient-4" x1="146.47" y1="145.32" x2="216.85" y2="29.82" gradientUnits="userSpaceOnUse">
      <stop offset="0" stop-color="#0064d5"/>
      <stop offset=".23" stop-color="#008eff"/>
      <stop offset=".41" stop-color="#009fff"/>
      <stop offset=".59" stop-color="#0042a8"/>
      <stop offset=".77" stop-color="#0074f4"/>
      <stop offset="1" stop-color="#00004e"/>
      <stop offset="1" stop-color="#0069e0"/>
    </linearGradient>
    <linearGradient id="linear-gradient-5" x1="0" y1="100.26" x2="231.8" y2="100.26" gradientUnits="userSpaceOnUse">
      <stop offset="0" stop-color="#d1d1d1"/>
      <stop offset=".27" stop-color="#929292"/>
      <stop offset=".5" stop-color="#c8c8c8"/>
      <stop offset=".73" stop-color="#e5e5e5"/>
      <stop offset="1" stop-color="#6d6d6d"/>
    </linearGradient>
  </defs>
  <g id="Layer_1-2" data-name="Layer 1">
    <g class="cls-4">
      <path class="cls-6" d="M139.31,17.52c-15.51-1.05-42.13-1.49-59.98-2.29-9.17-.25-10.62-.56-17.28-.41-14.79.43-29.36,5.87-40.57,15.52C2.34,45.63-2.99,74.95,13.27,107.6c.42.74.77,1.33,1.2.34,2.71-6.07,10.81-19.3,24.17-25.39.49-.36.68-.75.48-1.29-.45-1.14-1.29-3.29-1.9-5.99-3.74-14.75,5.42-26.08,21-27.49,16.58-.68,50.84,1.51,60.33.91,1.24-1.3,1.8-2.61,3.41-4.89,4.39-6.71,13.24-19.65,17.34-26.27v-.03Z"/>
      <path class="cls-1" d="M96.38,84.06c-18.92-3.65-41.28-2.82-58.48,6.86-25,13.13-31.29,55.82-4.11,68.97,8.86,4.21,13.15,3.61,18.29-4.96,1.8-2.93,4.47-5.57,5.54-8.81.51-2.65-1.81-4.55-2.99-6.66-2.75-4.4-5.29-10.61-1.89-15.37,3.81-4.94,11.19-6.24,17.06-6.82,1.84-.18,3.82-.23,5.65-.34,1.14-.09,2.3-.17,3.03-.92,3.54-5.42,14.76-25.07,18.03-30.44.32-.56.6-1.12-.06-1.48l-.08-.04Z"/>
      <path class="cls-3" d="M88.27,184.82c19.3.5,38.81.55,58.14.55,12.27.01,24.67,1.02,36.76-1.66,24.43-5.06,44.9-24.87,45.74-50.37.41-12.87-3.47-24.97-8.88-36.38-.45-.77-1.74-4.29-2.5-3.45-2.08,3.8-8.42,16.04-19.04,22.4-1.64,1.11-3.99,1.8-4.39,3.77-.27,1.47.98,3.93,1.57,6.14.46,1.54.84,3.1,1.06,4.68,1.9,11.88-6.71,21.21-18.16,22.9-23.14,2.15-46.71-1.26-69.9-1.12-1.39.23-1.78,1.13-2.88,2.89-3.67,5.84-10.43,16.68-14.86,23.73-.48.76-.91,1.45-1.36,2.17-1.21,2.15-2.54,3.29-1.36,3.71l.08.03Z"/>
      <path class="cls-2" d="M133.35,117.54c15.81.73,32.29,2.54,47.68-2.2,21.23-6.24,36.85-27.4,34.32-49.64-.57-7.67-4.52-15.45-9.73-19.9-6.06-5.37-15.09-10.33-21.81-3.83-3.03,3.15-6.65,7.93-9.47,11.22-.67.84-1.39,1.79-1.55,2.81-.2,1.22.55,2.39,1.37,3.27,4.53,4.69,12.72,14.72,5.46,20.85-5.26,4.08-12.95,4.73-19.41,5.05-2.51.35-6.03-.66-7.64,1.64-3.31,5.01-16.22,24.6-19.39,29.41-.33.52-.64,1.05.08,1.3l.08.03Z"/>
      <path class="cls-5" d="M7.68,129.62c.35.06.64.65.92,1.58.59,2.12,1.12,4.3,1.79,6.42,3.84,12.22,10.33,25.98,23.42,30.2,6.22,2.03,13.81,1.82,19.41-1.78,8.42-5.79,14.35-15.37,19.87-23.92,3.25-5.29,6.25-10.62,9.2-16.06,18.21-33.92,39.3-66.14,61.18-97.78,17.31-24.98,49.47-40.76,73.91-15.39,19.2,19.04,17.78,44.06,4.22,61.6-.52.63-.84,1.21-.58.44.08-.37.2-.72.28-1.17.96-6.19-.61-13.28-2.45-19.14-3.59-8.99-10.84-19.14-20.06-23.31-19.43-8.27-35.56,20.89-44.16,34.31-20.66,33.54-42.12,65.93-63.16,99.12-8.03,12.49-15.81,26.79-30.22,32.71-18.26,7.24-41.31,1.4-53.12-14.44-10.96-14.82-9.96-34.9-2.29-50.84.3-.78,1.23-2.63,1.77-2.54h.06Z"/>
    </g>
  </g>
</svg>